<?xml version="1.0" encoding="utf-8"?>
<!-- Generator: Adobe Illustrator 21.0.2, SVG Export Plug-In . SVG Version: 6.00 Build 0)  -->
<svg version="1.1" id="svgIcon" xmlns="http://www.w3.org/2000/svg" xmlns:xlink="http://www.w3.org/1999/xlink" x="0px" y="0px"
	 viewBox="0 0 30 30" style="enable-background:new 0 0 30 30;" xml:space="preserve">
<style type="text/css">
	.st0{fill:#FFFFFF;}
</style>
<path class="st0" d="M15,29.9c-4-1.1-9-5.2-9-11.7C6,11.7,11.9,6,18,6c6.1,0,12,6,12,12.2s-5.6,11-8.8,11.7c-2,0.4-2.5-0.8-2.5-1.6
	c0-1.6,0-4.4,0-4.4c0,0.3-0.2-1,0.8-2c1.2-1.3,3.3-3.7,3.3-3.7l-4.7-4.9l-4.8,4.9c0,0,2.5,2.9,3.2,3.6c0.7,0.7,1,1.5,1,2.1
	c0,1.1,0,3.9,0,4.4C17.6,29.2,16.4,30.3,15,29.9z M15.5,27.1c0,0,0.1-1.7,0-2.6c-0.1-0.9-5-6.2-5-6.2l7.6-8l7.6,8c0,0-5.1,5-5.2,6.2
	c-0.1,1.2,0.1,2.3,0.1,2.3s0.2,0.8,0.7,0.8c0.5,0,6.7-4.5,6.7-9.4S23,8.1,18,8.1c-5,0-9.8,4.3-9.8,10.1c0,5.8,4.9,8.7,6,9.1
	C15.3,27.7,15.5,27.1,15.5,27.1z"/>
<image style="overflow:visible;" width="125" height="125" xlink:href="bieutuong.png"  transform="matrix(0.224 0 0 0.224 1.9167 1.9167)">
</image>
</svg>
